<?xml version="1.0" standalone="no"?>
<!DOCTYPE svg PUBLIC "-//W3C//DTD SVG 20010904//EN"
 "http://www.w3.org/TR/2001/REC-SVG-20010904/DTD/svg10.dtd">
<svg version="1.0" xmlns="http://www.w3.org/2000/svg"
 width="178.000000pt" height="178.000000pt" viewBox="0 0 178.000000 178.000000"
 preserveAspectRatio="xMidYMid meet">
<metadata>
Created by potrace 1.14, written by Peter Selinger 2001-2017
</metadata>
<g transform="translate(0.000000,178.000000) scale(0.100000,-0.100000)"
fill="#000000" stroke="none">
<path d="M220 1444 c0 -3 9 -65 20 -137 29 -185 31 -197 36 -221 21 -101 23
-93 -84 -278 -55 -95 -112 -195 -127 -223 -16 -27 -34 -59 -41 -70 -8 -11 -14
-24 -14 -30 0 -8 94 -11 320 -11 221 0 320 3 320 10 0 6 -14 49 -31 96 -17 47
-42 118 -56 158 -14 39 -28 72 -33 72 -4 0 -21 -30 -37 -67 -44 -106 -42 -104
-104 -104 -86 -1 -83 -2 -65 25 8 14 24 40 34 58 11 18 45 78 77 133 61 106
59 97 39 214 l-6 33 59 -42 c32 -23 65 -47 74 -53 9 -7 76 -161 149 -344 73
-183 136 -330 140 -328 4 2 67 152 139 333 l132 329 75 52 c41 29 74 48 74 44
-1 -4 -7 -36 -14 -70 l-13 -62 89 -157 c49 -86 87 -158 84 -161 -9 -9 -117 -6
-125 3 -5 5 -23 43 -41 84 -19 41 -36 78 -40 82 -4 6 -99 -241 -121 -317 l-6
-22 327 1 327 0 -144 250 c-80 138 -145 258 -145 266 -1 8 2 35 6 60 6 39 11
70 32 185 17 100 32 210 29 213 -4 5 -78 -42 -385 -241 l-175 -114 -50 -126
c-27 -70 -52 -127 -55 -127 -3 0 -29 57 -58 128 l-52 127 -196 125 c-107 69
-201 130 -207 135 -20 17 -143 95 -150 95 -4 0 -7 -3 -7 -6z"/>
</g>
</svg>
