<svg width="324" height="38" viewBox="0 0 324 38" fill="none" xmlns="http://www.w3.org/2000/svg">
<path d="M58.4263 31.4973C58.011 30.8069 55.6948 26.7455 53.451 22.8189C51.8187 19.957 50.2691 17.242 49.4572 15.8392C49.8724 13.5448 52.0336 0 52.0336 0L33.2132 12.2145L33.1099 12.4641L32.926 12.937L29.6284 21.1082L26.3247 12.937L26.1408 12.4641L26.0375 12.2145L7.21702 0C7.21702 0 9.3782 13.5468 9.7935 15.8392C8.9815 17.242 7.42983 19.957 5.79965 22.8189C3.55789 26.7455 1.23968 30.8069 0.824387 31.4973L0 32.8578L1.80994 32.8618H9.53936L14.9526 32.8578C16.0539 32.8578 16.9423 32.8578 17.4485 32.8618H21.9155L17.6903 21.2028L14.8886 27.4117H10.3224L16.0456 17.4292L16.339 16.9079L16.5002 16.6302L16.4361 16.3303L16.3204 15.7627L15.5022 11.8784L20.5168 15.4145L26.6263 30.5755L28.6263 35.5325L29.5664 37.8631L29.6243 38L29.6759 37.8631L30.616 35.5325L32.6161 30.5755L38.7256 15.4145L43.7401 11.8784L42.922 15.7627L42.8063 16.3303L42.7422 16.6302L42.9034 16.9079L43.1968 17.4292L48.922 27.4117H44.3559L41.548 21.2028L37.3289 32.8618H41.7959C42.3021 32.8578 43.1906 32.8578 44.2918 32.8578L49.7051 32.8618H57.4345L59.2444 32.8578L58.4201 31.4973H58.4263Z" fill="url(#paint0_linear_234_4445)"/>
<path d="M121.904 5.96387V32.0352H112.771V9.5624L100.116 32.0352H95.2153L82.5644 9.68518V32.0352H79.2627V10.2849C79.2627 9.98102 79.2441 9.67712 79.2234 9.38731C79.2172 9.29473 79.2131 9.20618 79.2069 9.1136L79.1966 8.96265L79.1242 8.82982L77.5312 5.96387H89.8516L100.343 25.1943L110.79 5.96387H121.904Z" fill="white"/>
<path d="M151.414 5.96387H138.991L140.168 8.80365L140.303 9.12366L140.117 9.4175L127.164 32.0352H131.815L135.73 24.5684H154.222L158.545 32.0352H166.561L151.416 5.96387H151.414ZM137.497 21.1932L144.52 7.80943L152.268 21.1932H137.497Z" fill="white"/>
<path d="M242.082 5.96387V9.33498H228.115V32.0352H218.978V9.33498H207.327L205.453 5.96387H242.082Z" fill="white"/>
<path d="M322.662 7.32939C321.757 6.40963 320.703 5.96484 319.439 5.96484H285.883L287.476 8.83079L287.55 8.96362L287.556 9.11457C287.563 9.20715 287.569 9.2957 287.573 9.38426C287.591 9.6781 287.612 9.982 287.612 10.2839V32.0341H296.749V23.2531H319.439C320.689 23.2531 321.743 22.8003 322.662 21.8684C323.567 20.9507 324.005 19.882 324.005 18.6V10.618C324.005 9.33797 323.553 8.23305 322.662 7.32939ZM314.873 16.8651C314.873 17.6963 314.579 18.4128 314.005 18.9985C313.416 19.5922 312.734 19.882 311.92 19.882H296.749V9.33394H311.92C312.734 9.33394 313.416 9.62376 314.001 10.2175C314.586 10.8112 314.873 11.5035 314.873 12.3287V16.8631V16.8651Z" fill="white"/>
<path d="M206.639 32.033H175.239C173.977 32.033 172.927 31.5882 172.023 30.6705C171.115 29.7608 170.673 28.684 170.673 27.3859V10.0614C170.673 9.78367 170.651 9.50794 170.628 9.24027L170.615 9.04505L170.603 8.90014L170.531 8.77536L168.969 5.96777H198L199.874 9.33486H182.762C181.975 9.33486 181.277 9.61864 180.69 10.1802L180.684 10.1902L180.673 10.1963C180.105 10.7859 179.814 11.5065 179.814 12.3336V25.6692C179.814 26.4903 180.093 27.1806 180.675 27.7844C181.254 28.3721 181.956 28.6679 182.76 28.6679H204.827L206.639 32.033Z" fill="white"/>
<path d="M258.665 9.33406V17.1671H279.345V20.5423H258.665V28.6631H280.219V32.0342H249.528V10.3726C249.528 10.0204 249.506 9.65608 249.483 9.30991L249.47 9.10261L249.46 8.95368L249.388 8.82085L247.797 5.96094H280.219V9.33205H258.665V9.33406Z" fill="white"/>
<defs>
<linearGradient id="paint0_linear_234_4445" x1="29.6243" y1="1.8677" x2="29.6243" y2="42.4579" gradientUnits="userSpaceOnUse">
<stop stop-color="#FDA109"/>
<stop offset="1" stop-color="#F42C03"/>
</linearGradient>
</defs>
</svg>
