<svg width="523" height="62" viewBox="0 0 523 62" fill="none" xmlns="http://www.w3.org/2000/svg">
<path d="M94.3037 51.3903C93.6334 50.264 89.8951 43.6374 86.2734 37.2309C83.6388 32.5614 81.1376 28.1317 79.827 25.8429C80.4974 22.0995 83.9856 0 83.9856 0L53.6082 19.9289L53.4415 20.3361L53.1447 21.1078L47.8222 34.4397L42.4897 21.1078L42.1929 20.3361L42.0262 19.9289L11.6487 0C11.6487 0 15.137 22.1027 15.8073 25.8429C14.4967 28.1317 11.9922 32.5614 9.36101 37.2309C5.74266 43.6374 2.00093 50.264 1.33061 51.3903L0 53.6101L2.92135 53.6167H15.3971L24.1345 53.6101C25.912 53.6101 27.346 53.6101 28.1631 53.6167H35.3731L28.5533 34.594L24.0311 44.7243H16.6611L25.8987 28.437L26.3722 27.5866L26.6324 27.1334L26.529 26.6441L26.3422 25.7181L25.0216 19.3805L33.1154 25.15L42.9766 49.8863L46.2048 57.9742L47.7221 61.7767L47.8155 62L47.8989 61.7767L49.4163 57.9742L52.6444 49.8863L62.5057 25.15L70.5994 19.3805L69.2788 25.7181L69.0921 26.6441L68.9887 27.1334L69.2488 27.5866L69.7224 28.437L78.9633 44.7243H71.5932L67.0611 34.594L60.2513 53.6167H67.4613C68.2783 53.6101 69.7123 53.6101 71.4898 53.6101L80.2272 53.6167H92.703L95.6244 53.6101L94.2938 51.3903H94.3037Z" fill="url(#paint0_linear_234_4435)"/>
<path d="M196.753 9.73242V52.2698H182.013V15.6037L161.586 52.2698H153.676L133.257 15.804V52.2698H127.927V16.7826C127.927 16.2867 127.897 15.7909 127.864 15.318C127.854 15.167 127.847 15.0225 127.837 14.8715L127.821 14.6252L127.704 14.4084L125.133 9.73242H145.019L161.953 41.1084L178.814 9.73242H196.753Z" fill="white"/>
<path d="M244.376 9.73242H224.323L226.224 14.3658L226.441 14.8879L226.141 15.3673L205.234 52.2698H212.741L219.061 40.0872H248.908L255.885 52.2698H268.824L244.379 9.73242H244.376ZM221.912 34.5804L233.247 12.7436L245.753 34.5804H221.912Z" fill="white"/>
<path d="M390.73 9.73242V15.2327H368.186V52.2698H353.439V15.2327H334.634L331.609 9.73242H390.73Z" fill="white"/>
<path d="M520.786 11.9588C519.325 10.4581 517.625 9.73242 515.584 9.73242H461.422L463.993 14.4084L464.113 14.6252L464.123 14.8714C464.133 15.0225 464.143 15.167 464.15 15.3115C464.18 15.7909 464.213 16.2867 464.213 16.7793V52.2665H478.96V37.9396H515.584C517.601 37.9396 519.302 37.2008 520.786 35.6804C522.247 34.183 522.954 32.4394 522.954 30.3476V17.3244C522.954 15.2359 522.223 13.4332 520.786 11.9588ZM508.214 27.5171C508.214 28.8733 507.74 30.0423 506.813 30.9978C505.862 31.9665 504.762 32.4394 503.448 32.4394H478.96V15.2294H503.448C504.762 15.2294 505.862 15.7022 506.806 16.6709C507.75 17.6396 508.214 18.7692 508.214 20.1156V27.5138V27.5171Z" fill="white"/>
<path d="M333.512 52.2638H282.832C280.795 52.2638 279.101 51.5381 277.64 50.0408C276.176 48.5565 275.462 46.7997 275.462 44.6817V16.4154C275.462 15.9623 275.426 15.5124 275.389 15.0757L275.369 14.7571L275.349 14.5207L275.232 14.3171L272.711 9.73633H319.569L322.594 15.23H294.975C293.704 15.23 292.577 15.693 291.63 16.6092L291.62 16.6256L291.603 16.6354C290.686 17.5976 290.216 18.7731 290.216 20.1228V41.8807C290.216 43.2205 290.666 44.3468 291.606 45.3319C292.54 46.2907 293.674 46.7734 294.971 46.7734H330.588L333.512 52.2638Z" fill="white"/>
<path d="M417.487 15.2301V28.0103H450.866V33.5171H417.487V46.767H452.276V52.2672H402.74V16.9245C402.74 16.3498 402.703 15.7555 402.667 15.1907L402.647 14.8525L402.63 14.6095L402.513 14.3927L399.945 9.72656H452.276V15.2268H417.487V15.2301Z" fill="white"/>
<defs>
<linearGradient id="paint0_linear_234_4435" x1="47.8155" y1="3.0473" x2="47.8155" y2="69.2735" gradientUnits="userSpaceOnUse">
<stop stop-color="#FDA109"/>
<stop offset="1" stop-color="#F42C03"/>
</linearGradient>
</defs>
</svg>
